<?xml version="1.0" standalone="no"?>
<!DOCTYPE svg PUBLIC "-//W3C//DTD SVG 20010904//EN"
 "http://www.w3.org/TR/2001/REC-SVG-20010904/DTD/svg10.dtd">
<svg version="1.0" xmlns="http://www.w3.org/2000/svg"
 width="1738.000000pt" height="1738.000000pt" viewBox="0 0 1738.000000 1738.000000"
 preserveAspectRatio="xMidYMid meet">
<metadata>
Created by potrace 1.11, written by Peter Selinger 2001-2013
</metadata>
<g transform="translate(0.000000,1738.000000) scale(0.100000,-0.100000)"
fill="#000000" stroke="none">
<path d="M8459 12723 c-23 -43 -45 -80 -48 -83 -3 -3 -7 -12 -9 -20 -2 -8 -10
-19 -18 -23 -8 -4 -14 -13 -14 -19 0 -9 -142 -213 -160 -228 -3 -3 -39 -45
-80 -95 -180 -215 -519 -549 -836 -822 -27 -23 -60 -52 -74 -64 -14 -12 -45
-38 -70 -58 -25 -20 -54 -45 -66 -56 -11 -11 -36 -32 -55 -47 -19 -15 -47 -37
-63 -50 -16 -13 -43 -35 -60 -49 -38 -32 -230 -185 -276 -219 -18 -14 -38 -30
-44 -35 -6 -6 -47 -37 -91 -70 -43 -33 -86 -66 -95 -72 -8 -7 -51 -40 -95 -73
-44 -33 -89 -67 -100 -75 -11 -9 -49 -37 -85 -63 -36 -26 -71 -52 -77 -58 -7
-7 -29 -22 -50 -35 -21 -13 -40 -26 -43 -29 -3 -3 -21 -17 -40 -30 -19 -14
-44 -32 -54 -42 -11 -10 -24 -18 -28 -18 -5 0 -19 -9 -31 -21 -12 -12 -33 -28
-47 -38 -42 -27 -314 -219 -327 -231 -7 -5 -15 -10 -17 -10 -3 0 -27 -16 -53
-35 -27 -19 -53 -39 -58 -43 -6 -4 -46 -31 -90 -61 -44 -30 -81 -58 -83 -63
-2 -4 -9 -8 -16 -8 -11 0 -24 -9 -72 -49 -7 -5 -15 -7 -18 -4 -3 4 -6 2 -6 -3
0 -5 -15 -18 -32 -29 -18 -10 -37 -23 -43 -28 -24 -21 -598 -397 -606 -397 -5
0 -9 -4 -9 -10 0 -5 -4 -10 -9 -10 -4 0 -41 -22 -82 -48 -78 -51 -187 -122
-279 -180 -30 -19 -72 -47 -94 -61 -21 -14 -47 -30 -57 -36 -10 -5 -57 -35
-105 -65 -47 -30 -95 -60 -107 -67 -12 -7 -29 -17 -37 -23 -51 -35 -193 -120
-201 -120 -5 0 -9 -4 -9 -9 0 -5 -10 -13 -22 -17 -13 -4 -25 -10 -28 -14 -3
-4 -31 -23 -63 -41 -32 -19 -71 -42 -85 -51 -15 -10 -36 -22 -47 -28 -11 -6
-33 -19 -50 -30 -16 -11 -43 -27 -60 -36 -16 -9 -32 -20 -35 -23 -3 -3 -25
-17 -50 -30 -25 -13 -61 -33 -80 -46 -42 -27 -165 -100 -240 -144 -30 -17 -62
-36 -70 -41 -37 -23 -218 -127 -245 -140 -16 -8 -32 -18 -35 -21 -5 -6 -123
-74 -230 -132 -30 -17 -72 -41 -92 -54 -21 -13 -40 -23 -44 -23 -3 0 -19 -9
-35 -21 -16 -11 -29 -17 -29 -12 0 4 -4 3 -8 -3 -8 -12 -228 -134 -242 -134
-6 0 -10 -3 -10 -8 0 -4 -24 -18 -52 -32 -29 -13 -55 -27 -58 -30 -4 -4 -107
-59 -205 -108 -16 -9 -32 -18 -35 -22 -4 -6 -37 -20 -50 -22 -3 -1 -22 -12
-42 -25 -21 -13 -38 -20 -38 -16 0 5 -4 4 -8 -2 -9 -13 -214 -117 -226 -115
-5 1 -12 -2 -15 -7 -6 -10 -221 -116 -313 -154 -29 -13 -56 -27 -59 -32 -3 -5
-9 -8 -13 -7 -6 2 -161 -60 -253 -101 -24 -11 -49 -19 -56 -19 -7 0 -17 -4
-23 -9 -5 -5 -26 -14 -46 -21 l-38 -12 0 -259 0 -259 39 5 c22 3 75 12 118 21
43 8 94 17 113 20 19 3 46 7 60 10 28 5 289 52 335 60 17 2 38 7 47 10 9 3 32
7 50 8 18 2 49 7 68 10 19 4 49 9 65 12 45 7 141 24 172 29 16 3 46 8 68 11
47 6 65 9 143 23 31 6 77 13 102 16 25 3 52 8 60 10 8 2 38 6 65 10 28 3 57 8
65 10 8 2 33 6 55 10 22 3 54 7 70 10 17 3 48 7 70 10 22 3 67 10 100 15 33 5
80 12 105 15 25 3 56 8 70 10 69 12 128 19 158 19 17 1 32 3 32 6 0 3 17 6 37
8 20 1 48 4 62 7 14 3 49 8 76 11 53 5 84 10 125 18 14 2 54 7 90 11 36 3 74
8 85 10 11 2 41 7 68 10 114 13 144 16 177 21 19 4 51 7 70 9 19 1 53 5 75 8
46 7 124 17 175 22 19 2 60 6 90 9 30 4 78 9 105 12 28 3 66 7 85 9 55 7 111
14 170 20 30 3 71 7 90 10 31 4 112 12 220 21 19 1 35 3 35 4 0 2 86 9 165 15
41 2 75 5 75 6 0 2 47 7 125 13 41 3 98 8 125 12 28 3 75 7 105 9 58 4 174 13
250 20 25 3 83 7 130 10 47 3 105 8 130 10 55 5 192 15 280 21 113 6 233 14
305 19 178 12 538 32 734 40 352 15 451 18 558 19 68 1 123 3 123 6 0 3 55 6
123 7 193 3 542 11 547 13 3 1 10 1 15 0 6 -1 28 -2 50 -1 l41 2 -1 -1281 0
-1280 739 2 740 3 0 1277 0 1277 230 -4 c409 -7 812 -21 1216 -40 63 -3 158
-7 210 -10 222 -10 340 -17 535 -30 134 -8 230 -14 320 -20 44 -2 107 -7 140
-10 95 -8 212 -17 395 -30 41 -3 93 -7 115 -10 22 -2 76 -7 120 -10 44 -3 98
-8 120 -11 22 -3 67 -7 100 -9 33 -3 80 -7 105 -9 25 -3 74 -7 110 -10 36 -3
83 -8 105 -10 43 -5 108 -12 220 -22 39 -3 79 -8 90 -10 11 -2 51 -6 89 -9 39
-3 86 -8 105 -10 105 -14 150 -18 183 -19 21 -1 38 -3 38 -6 0 -3 17 -6 38 -7
20 -1 53 -4 72 -7 19 -2 62 -7 95 -10 33 -3 71 -8 84 -11 13 -2 51 -7 85 -10
33 -3 72 -7 86 -9 30 -5 103 -14 168 -22 26 -3 58 -7 72 -10 14 -2 47 -7 75
-9 27 -3 65 -8 82 -10 18 -3 50 -7 71 -10 20 -3 54 -8 75 -10 97 -13 143 -19
192 -28 17 -3 55 -9 85 -12 30 -3 66 -8 80 -10 14 -2 41 -6 60 -9 19 -3 51 -8
71 -11 20 -3 51 -8 70 -10 19 -2 48 -6 64 -9 17 -3 46 -7 65 -10 88 -12 117
-17 140 -22 22 -5 101 -15 138 -17 6 0 12 -3 12 -6 0 -3 10 -6 23 -7 31 0 112
-12 177 -24 30 -6 71 -13 90 -16 55 -8 392 -64 420 -70 14 -2 39 -7 55 -9 17
-3 41 -7 55 -10 44 -9 84 -16 110 -20 14 -2 54 -9 90 -15 36 -7 74 -14 85 -16
11 -2 31 -6 45 -8 14 -3 41 -7 60 -11 19 -3 55 -10 80 -15 25 -5 64 -12 88
-15 l42 -6 0 258 0 259 -97 38 c-54 21 -117 46 -140 57 -24 10 -45 19 -47 19
-2 0 -21 8 -42 17 -22 9 -45 18 -53 19 -7 1 -18 7 -24 13 -6 6 -19 11 -29 11
-10 0 -18 5 -18 10 0 6 -5 10 -11 10 -21 0 -632 299 -637 312 -2 5 -11 8 -21
8 -9 0 -27 9 -39 20 -12 12 -22 18 -22 16 0 -3 -19 5 -42 18 -57 30 -183 98
-288 154 -47 25 -89 48 -95 52 -10 7 -31 19 -190 105 -38 21 -102 58 -142 81
-39 23 -81 45 -92 49 -12 3 -21 11 -21 16 0 5 -4 9 -9 9 -8 0 -207 111 -251
140 -8 6 -22 13 -30 17 -8 4 -66 37 -128 75 -62 37 -114 68 -116 68 -2 0 -108
63 -236 140 -127 77 -236 140 -240 140 -5 0 -10 3 -12 8 -1 4 -70 48 -153 98
-293 178 -450 277 -453 285 -2 5 -8 9 -14 9 -6 0 -30 14 -55 30 -24 17 -47 30
-52 30 -4 0 -16 8 -27 18 -19 16 -31 23 -86 55 -13 6 -25 14 -28 17 -3 3 -39
27 -80 53 -41 25 -80 50 -86 55 -5 5 -21 15 -35 22 -13 7 -26 16 -29 19 -7 9
-41 29 -65 40 -12 5 -27 16 -34 25 -7 9 -17 16 -22 16 -11 0 -103 62 -107 73
-2 4 -10 7 -17 7 -8 0 -20 6 -27 13 -7 6 -162 111 -343 232 -182 120 -331 223
-333 227 -2 4 -8 8 -13 8 -6 0 -33 17 -62 38 -29 21 -113 81 -187 132 -74 52
-227 159 -339 239 -112 80 -221 158 -243 174 -22 15 -45 32 -51 37 -7 6 -41
31 -77 57 -36 26 -69 51 -75 56 -5 4 -62 46 -125 93 -63 46 -126 95 -140 107
-14 12 -50 40 -80 62 -30 21 -57 42 -60 45 -3 3 -34 28 -70 55 -35 28 -73 58
-85 67 -11 9 -60 49 -110 88 -133 105 -162 129 -250 205 -32 28 -68 57 -79 65
-12 8 -25 19 -31 25 -5 6 -41 38 -80 71 -38 32 -79 68 -90 79 -12 11 -41 37
-66 58 -181 157 -470 443 -644 638 -60 66 -207 254 -250 319 -16 25 -33 47
-37 48 -5 2 -8 7 -8 12 0 4 -25 50 -55 101 -30 51 -55 99 -55 106 0 10 -42 13
-199 13 l-200 0 -42 -77z m-504 -3272 c0 -951 -2 -1732 -5 -1734 -3 -3 -123
-7 -268 -10 -144 -2 -265 -7 -268 -10 -3 -3 -16 -2 -29 3 -13 5 -25 6 -29 3
-3 -3 -72 -7 -153 -9 -178 -4 -398 -11 -548 -19 -60 -3 -164 -7 -230 -10 -66
-3 -144 -7 -172 -9 -29 -3 -54 -1 -54 2 -5 22 -4 2114 1 2120 3 4 13 12 22 17
30 18 278 199 311 227 18 15 35 28 38 28 3 0 15 8 27 18 11 9 30 24 42 32 12
8 50 36 84 62 73 57 66 52 141 107 33 25 65 50 70 56 6 6 26 22 45 35 19 13
37 27 40 30 3 3 23 19 45 36 22 16 45 34 51 39 6 6 28 24 49 40 21 17 43 35
49 40 6 6 31 26 56 45 25 18 52 41 61 49 9 9 31 27 49 41 17 14 41 33 53 43
12 11 42 35 66 55 24 21 53 46 65 57 13 11 49 43 82 70 32 28 71 61 85 75 15
14 58 53 96 86 37 34 81 74 96 88 15 14 29 26 30 26 2 0 3 -778 2 -1729z
m1530 1687 c17 -18 51 -49 74 -68 23 -19 59 -51 79 -70 42 -40 104 -94 182
-160 29 -25 58 -50 64 -55 6 -6 36 -30 66 -55 30 -25 57 -47 60 -50 3 -3 52
-44 110 -90 58 -47 114 -92 125 -102 18 -15 236 -184 381 -296 34 -26 72 -54
85 -62 12 -8 36 -26 53 -41 17 -14 56 -43 86 -64 30 -22 57 -42 60 -45 3 -3
28 -21 55 -40 28 -19 59 -42 69 -52 11 -10 25 -18 32 -18 7 0 14 -3 16 -7 2
-5 28 -26 58 -49 l55 -41 -1 -1054 c-1 -580 -2 -1057 -3 -1061 0 -3 -22 -4
-48 -2 -27 2 -109 6 -183 9 -74 3 -171 8 -215 10 -131 8 -430 17 -587 19 -82
0 -148 3 -148 6 0 5 -100 7 -446 9 l-130 1 0 1730 c0 1093 3 1730 9 1730 6 0
24 -15 42 -32z m-4768 -2428 c-2 -38 1 -70 6 -70 6 0 6 -5 1 -12 -8 -11 -10
-173 -5 -293 0 -16 1 -95 1 -175 0 -80 0 -149 0 -155 0 -5 -1 -45 -3 -88 -1
-43 1 -81 6 -84 4 -2 4 -10 0 -16 -4 -7 -8 -69 -8 -139 l1 -128 -41 -1 c-22
-1 -53 -3 -70 -4 -52 -6 -199 -19 -320 -29 -33 -3 -78 -8 -100 -10 -22 -3 -69
-8 -105 -11 -36 -3 -85 -8 -110 -11 -25 -2 -72 -7 -105 -10 -33 -3 -76 -7 -95
-9 -19 -2 -60 -6 -90 -9 -57 -6 -130 -14 -190 -21 -38 -5 -94 -11 -180 -20
-63 -6 -93 -10 -205 -25 -44 -6 -102 -12 -130 -15 -86 -9 -190 -22 -245 -31
-14 -2 -54 -7 -90 -10 -76 -8 -105 -12 -105 -14 0 -1 -56 -8 -125 -15 -19 -2
-35 -4 -35 -5 0 -3 -35 -8 -93 -14 -33 -3 -67 -9 -76 -12 -9 -3 -16 -2 -16 2
0 5 58 40 128 78 70 38 139 78 155 88 15 11 27 17 27 13 0 -3 20 8 45 25 25
17 45 27 45 23 0 -4 4 -3 8 2 7 10 28 23 97 60 22 12 123 70 225 130 102 59
201 117 220 127 19 11 51 30 70 41 19 12 48 29 63 37 15 8 78 45 140 82 62 37
116 67 121 67 5 -1 12 3 15 8 8 12 258 163 270 163 5 0 11 4 13 8 4 10 105 72
118 72 6 0 10 5 10 10 0 6 5 10 10 10 6 0 34 15 63 34 28 18 109 69 180 112
234 145 361 224 456 286 25 15 46 28 48 28 2 0 2 -31 0 -70z m8023 30 c11 -12
333 -210 341 -210 5 0 9 -4 9 -10 0 -5 4 -10 10 -10 5 0 47 -24 92 -53 46 -29
108 -68 138 -85 79 -47 94 -56 100 -63 3 -3 12 -9 20 -13 17 -8 14 -6 170
-100 63 -38 133 -81 155 -95 22 -14 42 -26 45 -26 3 0 23 -12 45 -26 22 -14
47 -28 55 -32 8 -4 44 -25 79 -47 34 -22 65 -40 67 -40 2 0 33 -18 69 -40 36
-22 70 -40 75 -40 6 0 10 -4 10 -9 0 -5 8 -11 18 -14 23 -8 76 -40 80 -49 2
-5 9 -8 15 -8 7 0 40 -18 75 -40 34 -22 65 -40 67 -40 2 0 86 -47 186 -105
100 -58 184 -105 186 -105 1 0 66 -36 142 -80 77 -44 144 -80 149 -80 4 0 24
-12 43 -26 21 -16 26 -24 14 -20 -11 3 -45 8 -75 12 -30 3 -66 7 -80 9 -14 2
-38 5 -55 8 -16 3 -57 9 -90 12 -33 4 -69 9 -80 10 -11 2 -42 6 -70 9 -27 3
-84 11 -125 16 -95 12 -167 21 -205 25 -16 2 -46 5 -65 9 -49 7 -235 29 -355
40 -33 4 -76 8 -95 11 -34 5 -97 11 -190 20 -25 2 -63 7 -85 9 -22 3 -67 8
-100 11 -33 3 -82 7 -110 10 -133 13 -164 16 -210 21 -27 2 -72 6 -99 8 -26 3
-74 7 -105 11 -84 9 -146 14 -234 20 -43 2 -82 7 -86 9 -8 5 -12 1204 -4 1218
3 7 49 -16 63 -32z"/>
</g>
</svg>
