<svg xmlns="http://www.w3.org/2000/svg" viewBox="0 0 1737.53 822.26"><defs><style>.cls-1{fill:none;}.cls-2{fill:#3e75dc;}</style></defs><g id="arch"><path class="cls-1" d="M1613.89,634.2c-206-113.3-542.27-321.34-652.76-472.36C866,302.67,537.55,511.29,316.35,634.77,739.57,574.63,1183.31,574.44,1613.89,634.2Z" transform="translate(-100.74 -124.37)"/><rect class="cls-2" x="106.97" y="695.98" width="0.36" transform="translate(-405.03 0.13) rotate(-27)"/><rect class="cls-2" x="106.98" y="712.55" width="0.33" transform="translate(-219.75 -95.97) rotate(-9.74)"/><path class="cls-1" d="M969.63,205.11l-.13.17-.13-.17c-110.49,151-446.73,359-652.76,472.36a4793.61,4793.61,0,0,1,1305.78,0C1416.36,564.16,1080.12,356.12,969.63,205.11Z" transform="translate(-100.74 -124.37)"/><path class="cls-2" d="M1811.4,708.32C1662.48,648.59,1085.14,301,995,135.52l-6.08-11.15H950.1L944,135.52C853.86,301,276.52,648.59,127.6,708.32L100.74,719.1v51.8l42.65-7.7c271.75-49,549.7-73.36,826.11-73.16,276.41-.2,554.36,24.16,826.11,73.16l42.65,7.7V719.1ZM969.5,632.8a4732.36,4732.36,0,0,0-652.89,44.67c206-113.31,542.27-321.35,652.76-472.36l.13.17.13-.17c110.49,151,446.73,359,652.76,472.36A4732.36,4732.36,0,0,0,969.5,632.8Z" transform="translate(-100.74 -124.37)"/></g><g id="Layer_5" data-name="Layer 5"><polygon class="cls-2" points="915.4 105.8 915.4 53.09 868.76 53.09 868.76 49.59 822.13 49.59 822.13 112.87 794.91 112.87 794.91 535.09 822.13 535.09 868.76 535.09 868.76 538.6 915.4 538.6 915.4 528.03 942.62 528.03 942.62 105.8 915.4 105.8"/><polygon class="cls-2" points="1168.26 332.09 1168.26 273.93 1118.91 273.93 1118.91 332.09 1118.91 362.26 1118.91 553.09 1266.62 553.09 1266.62 332.09 1168.26 332.09"/><polygon class="cls-2" points="569.26 338.51 569.26 280.36 618.62 280.36 618.62 338.51 618.62 368.68 618.62 559.51 470.91 559.51 470.91 338.51 569.26 338.51"/><rect class="cls-2" x="794.91" y="508.95" width="147.71" height="313.32"/></g></svg>