<?xml version="1.0" encoding="utf-8"?>
<!-- Generator: Adobe Illustrator 24.3.0, SVG Export Plug-In . SVG Version: 6.00 Build 0)  -->
<svg version="1.1" id="Layer_1" xmlns="http://www.w3.org/2000/svg" xmlns:xlink="http://www.w3.org/1999/xlink" x="0px" y="0px"
	 viewBox="0 0 485 307.6" style="enable-background:new 0 0 485 307.6;" xml:space="preserve">
<style type="text/css">
	.st0{display:none;}
	.st1{display:inline;fill:none;stroke:#FFFFFF;stroke-miterlimit:10;}
	.st2{display:inline;}
	.st3{fill:none;stroke:#3E75DC;stroke-width:1.5;stroke-miterlimit:10;}
	.st4{fill:#3E75DC;stroke:#3E75DC;stroke-width:1.5;stroke-miterlimit:10;}
	.st5{display:inline;fill:#3E75DC;stroke:#3E75DC;stroke-width:1.5;stroke-miterlimit:10;}
	.st6{display:inline;fill:#3E75DC;}
	.st7{fill:#3E75DC;}
</style>
<g id="Layer_1_1_" class="st0">
	
		<image style="display:inline;overflow:visible;opacity:0.4;enable-background:new    ;" width="128" height="128" xlink:href="E9356A08.png"  transform="matrix(1 0 0 1 168.9701 78.6)">
	</image>
</g>
<g id="Layer_2_1_" class="st0">
	<path class="st1" d="M232.7,103.5c-7.1,16.8-57.1,41-57.1,41s62.4-11.1,114.8,0.1"/>
	<path class="st1" d="M291.1,144.6c-56.4-27.2-58.1-41-58.1-41"/>
</g>
<g id="curves" class="st0">
	<g class="st2">
		<path class="st3" d="M232.8,104.8c-4.6,11-38.7,31.3-53.3,38.7c34.9-6,71.9-6,107.6,0C273.5,136.9,239.2,116.6,232.8,104.8z"/>
		<path class="st4" d="M291,144.1c-10.3-4.1-51.1-28.5-57.7-40.6h-1.2c-4.2,10.2-42.8,34.3-56.3,40.6l-1,0.5v0.7l1.3-0.2
			c37.1-6.8,76.7-6.8,114.6,0l1.2,0.2v-0.8L291,144.1z M179.5,143.5c14.6-7.4,48.7-27.7,53.3-38.7c6.4,11.9,40.7,32.1,54.2,38.7
			C251.4,137.5,214.4,137.5,179.5,143.5z"/>
	</g>
	<path class="st5" d="M232.8,104.2"/>
</g>
<g id="lines" class="st0">
	<rect x="231.4" y="104.8" class="st6" width="2.9" height="35.7"/>
	<rect x="238" y="111.3" class="st6" width="1.9" height="29"/>
	<rect x="243.9" y="116.6" class="st6" width="1.9" height="23.5"/>
	<rect x="249" y="120.1" class="st6" width="1.9" height="20.8"/>
	<rect x="255" y="124.1" class="st6" width="1.9" height="17"/>
	<rect x="261" y="128.1" class="st6" width="1.9" height="13.3"/>
	<rect x="267" y="132" class="st6" width="1.9" height="9.8"/>
	<rect x="272" y="134.9" class="st6" width="1.9" height="7.5"/>
	<rect x="192" y="134.9" class="st6" width="1.9" height="7.5"/>
	<rect x="197.9" y="131.6" class="st6" width="1.9" height="10.1"/>
	<rect x="204" y="127.7" class="st6" width="1.9" height="13.3"/>
	<rect x="214.9" y="119.9" class="st6" width="1.9" height="20.8"/>
	<rect x="209" y="124.1" class="st6" width="1.9" height="17"/>
	<rect x="221" y="115.6" class="st6" width="1.9" height="23.5"/>
	<rect x="226" y="110.9" class="st6" width="1.9" height="29"/>
</g>
<g id="bridges">
</g>
<g id="connector">
</g>
<g id="new_shape">
	<g>
		<path class="st7" d="M123.3,200.2c-2.5,1.7-5.2,5.3-8.2,10.8v-11.7h-11.5v77h12.8V236c0-5.5,0.7-10.6,2.1-15.2
			c1-3,2.5-5.4,4.8-7.2s4.8-2.6,7.5-2.6c3.1,0,6.3,0.9,9.4,2.8l4.4-12.1c-4.5-2.8-8.9-4.2-13.2-4.2
			C128.5,197.6,125.8,198.5,123.3,200.2z"/>
		<rect x="152.4" y="199.3" class="st7" width="12.8" height="77"/>
		<rect x="152.4" y="170" class="st7" width="12.8" height="15"/>
		<path class="st7" d="M315.9,208.6c-5.8-7.3-13.2-11-22.1-11c-6.7,0-12.5,1.7-17.5,5.1c-5,3.4-8.8,8.2-11.4,14.4
			c-2.6,6.2-3.9,13-3.9,20.3c0,10.7,2.8,19.9,8.5,27.5s13.8,11.5,24.2,11.5c8.4,0,15.3-3.4,21-10.1c0.1,8.5-0.3,14.1-0.9,16.8
			c-1.1,4.3-3.3,7.7-6.6,10.2s-7.8,3.6-13.8,3.6c-5.5,0-9.9-1.2-13-3.6c-2.4-1.8-3.8-4.6-4.3-8.6l-12.5-1.9
			c-0.2,8.3,2.5,14.5,8,18.7c5.6,4.1,12.8,6.2,21.9,6.2c7.6,0,14-1.5,19.2-4.3c5.2-2.9,9-6.9,11.4-11.9c2.4-5,3.6-13.5,3.6-25.5
			v-66.6h-11.8L315.9,208.6L315.9,208.6z M309.7,258.6c-4,4.6-8.9,6.9-14.8,6.9c-5.9,0-10.9-2.3-14.8-7c-3.9-4.6-5.9-12-5.9-22.1
			c0-9.3,2-16.3,6-21c4-4.7,8.8-7.1,14.5-7.1c5.8,0,10.8,2.4,14.9,7.2s6.2,11.9,6.2,21.3C315.7,246.8,313.7,254,309.7,258.6z"/>
		<path class="st7" d="M375.2,197.6c-10.4,0-18.9,3.6-25.5,10.7s-9.8,17.2-9.8,30.2c0,12.5,3.2,22.3,9.7,29.2
			c6.5,6.9,15.3,10.4,26.3,10.4c8.8,0,16-2.2,21.7-6.5c5.7-4.3,9.5-10.5,11.6-18.4l-13.3-1.7c-1.9,5.5-4.6,9.5-7.9,12
			c-3.3,2.5-7.3,3.8-12,3.8c-6.3,0-11.6-2.3-15.8-6.8s-6.6-11-7.1-19.4h56.4c0.1-1.5,0.1-2.7,0.1-3.5c0-12.7-3.2-22.6-9.6-29.6
			C393.6,201.1,385.3,197.6,375.2,197.6z M353.8,230.4c0.4-6.7,2.7-12.1,6.7-16.1c4-4,9-6,14.9-6c6.5,0,11.8,2.5,15.9,7.5
			c2.7,3.2,4.3,8.1,4.8,14.6H353.8z"/>
		<path class="st7" d="M468.6,235.7c-3.6-1.6-9.9-3.6-19-6.1c-6.3-1.7-10.1-2.8-11.3-3.3c-2.2-0.9-3.9-2.1-4.9-3.5
			c-1.1-1.3-1.6-2.9-1.6-4.6c0-2.7,1.3-5,3.8-7c2.5-2,6.7-3,12.6-3c5,0,8.8,1.1,11.6,3.3c2.7,2.2,4.4,5.3,4.9,9.3l12.5-1.7
			c-0.8-5-2.3-9-4.4-11.9s-5.4-5.3-9.9-7.1s-9.7-2.6-15.6-2.6c-3.9,0-7.6,0.5-11.1,1.6s-6.2,2.3-8.2,3.8c-2.7,1.9-4.8,4.4-6.3,7.3
			s-2.3,6.1-2.3,9.5c0,3.8,0.9,7.2,2.8,10.3s4.6,5.6,8.3,7.3s10.2,3.9,19.6,6.3c7,1.8,11.3,3.3,13.1,4.4c2.5,1.7,3.8,4,3.8,7
			c0,3.3-1.4,6.2-4.3,8.6c-2.8,2.4-7.2,3.7-13.1,3.7c-5.8,0-10.4-1.4-13.7-4.1c-3.3-2.8-5.2-6.7-5.9-11.9l-12.7,2
			c1.4,8.2,4.7,14.3,9.9,18.5s12.7,6.2,22.5,6.2c5.9,0,11.3-1,16-3.2c4.7-2.1,8.3-5.1,10.8-8.9c2.5-3.8,3.7-7.9,3.7-12.3
			c0-4.5-1-8.2-3.1-11.2S472.2,237.3,468.6,235.7z"/>
		<path class="st7" d="M479.2,167.8L479.2,167.8C436.9,150.5,272.8,49.7,247,1.6L246.1,0h-3.7h0h-3.7l-0.9,1.6
			C212.2,49.7,48.1,150.5,5.8,167.8l0,0L0,170.1v9.1l8.6-1.6c4.6-0.8,9.3-1.6,14-2.4v101.2h11.9v-9.7c5.1,7.6,12.1,11.4,21,11.4
			c9,0,16.7-3.6,23.1-10.8c6.4-7.2,9.6-17.4,9.6-30.6c0-5.6-0.8-10.8-2.3-15.7c-1.5-4.9-3.6-9.1-6.3-12.5c-2.7-3.5-6.1-6.1-10.3-8
			c-4.2-1.9-8.6-2.9-13.2-2.9c-8.4,0-15.3,3.5-20.7,10.4V173c66.2-10.7,133.5-16.1,200.6-16.4v0v16.1h0v35.4
			c-2.2-3.1-5.1-5.7-8.7-7.7s-7.6-2.9-12.2-2.9c-6.2,0-11.8,1.7-16.9,5c-5,3.3-8.8,8.1-11.3,14.4s-3.8,13.2-3.8,20.9
			c0,7.9,1.4,14.9,4.2,20.9s6.7,10.8,11.8,14.2c5.1,3.4,10.6,5.1,16.6,5.1c9.3,0,16.4-3.8,21.2-11.5v9.7h11.9V170h0v-13.4v0
			c76.2,0.3,152.8,7.3,227.7,21l8.6,1.6v-9.1L479.2,167.8z M40.4,215.8c4.1-5,8.9-7.4,14.5-7.4c5.6,0,10.3,2.4,14.2,7.2
			s5.9,12.2,5.9,22.3c0,9.8-2,17.2-6.1,22.2s-8.9,7.4-14.5,7.4c-6.9,0-12.3-3.4-16.4-10.1c-2.5-4.1-3.7-10.8-3.7-20
			C34.3,227.9,36.3,220.7,40.4,215.8z M75.9,156.8c-11.5,1.5-23,3-34.4,4.8c9.9-5.3,21.7-11.9,34.4-19.3V156.8z M96.4,154.3
			c-4.2,0.5-8.4,1-12.5,1.5v-18.2c4.1-2.4,8.3-5,12.5-7.5V154.3z M120.6,151.9c-5.5,0.5-10.9,1.1-16.4,1.7v-28.2
			c5.4-3.3,10.9-6.8,16.4-10.3V151.9z M144.9,149.8c-1.1,0.1-2.3,0.1-3.4,0.2c-4.3,0.3-8.6,0.7-12.9,1.1v-41.3
			c5.5-3.5,10.9-7.1,16.3-10.8L144.9,149.8L144.9,149.8z M169.2,148.3c-5.5,0.3-11,0.7-16.4,1V93.8c5.6-3.8,11.1-7.7,16.4-11.6
			V148.3z M189.8,147.3c-4.3,0.2-8.5,0.4-12.8,0.6V76.4c4.4-3.3,8.6-6.5,12.8-9.8V147.3z M213.9,146.6c-5.4,0.1-10.8,0.3-16.2,0.5
			V60.3c3-2.4,5.9-4.8,8.6-7.2c2.6-2.3,5.1-4.5,7.6-6.7V146.6z M221.7,39.1c5.4-5.3,10.2-10.5,14.2-15.5v122.7
			c-4.7,0-9.5,0.1-14.2,0.1V39.1z M231.1,260.4c-3.9,4.7-8.7,7-14.3,7c-5.6,0-10.4-2.4-14.5-7.3c-4.1-4.9-6.1-12.3-6.1-22.1
			c0-10.2,1.9-17.7,5.7-22.4s8.6-7.1,14.3-7.1c5.8,0,10.8,2.5,14.8,7.4c4,4.9,6,12.7,6,23.2C237,248.6,235,255.7,231.1,260.4z
			 M263.2,146.4c-4.9-0.1-9.7-0.1-14.6-0.1V23.1c4.1,5.1,9,10.5,14.6,16V146.4z M287.2,147c-5.4-0.2-10.8-0.3-16.2-0.5V46.4
			c2.5,2.2,5,4.5,7.6,6.7c2.8,2.4,5.7,4.8,8.6,7.2V147z M307.9,147.9c-4.3-0.2-8.5-0.4-12.8-0.6V66.6c4.1,3.3,8.4,6.5,12.8,9.8
			V147.9z M332.2,149.3c-5.5-0.4-11-0.7-16.4-1V82.1c5.4,3.9,10.9,7.8,16.4,11.6V149.3z M356.4,151.2c-4.3-0.4-8.6-0.8-12.9-1.1
			c-1.1-0.1-2.3-0.1-3.4-0.2V99.1c5.4,3.6,10.9,7.3,16.3,10.8L356.4,151.2L356.4,151.2z M380.7,153.5c-5.5-0.6-10.9-1.1-16.4-1.7
			V115c5.5,3.5,11,7,16.4,10.3V153.5z M401.1,155.8c-4.2-0.5-8.4-1-12.6-1.5v-24.3c4.3,2.6,8.4,5.1,12.6,7.5V155.8z M409,156.8
			v-14.5c12.8,7.4,24.5,14,34.4,19.3C432,159.8,420.5,158.3,409,156.8z"/>
	</g>
</g>
</svg>
