<svg height='100px' width='100px'  fill="#000000" xmlns="http://www.w3.org/2000/svg" xmlns:xlink="http://www.w3.org/1999/xlink" version="1.1" x="0px" y="0px" viewBox="0 0 100 100" enable-background="new 0 0 100 100" xml:space="preserve"><g><path d="M82.396,54.595v3.086H68.581v-7.369h-8.565V29.827h-9.321v-4.486h10.598v-8.115H47.99v3.606v4.509v4.486h-8.037v20.484   h-8.566v7.369H17.603v-3.083H2.5v28.177h15.103v-0.002h13.784h12.849h11.497h12.849h13.815h8.727H97.5V54.595H82.396z    M50.695,19.931h7.893v2.705h-7.893v-1.804V19.931z M42.658,32.532h14.652v17.485H42.658V32.532z M34.092,53.017h31.784v27.051   H55.732v-7.703c0-2.734-2.226-4.959-4.959-4.959h-1.578c-2.734,0-4.959,2.225-4.959,4.959v7.703H34.092V53.017z M46.941,80.067   v-7.703c0-1.243,1.011-2.255,2.254-2.255h1.578c1.244,0,2.254,1.012,2.254,2.255v7.703H46.941z M5.205,57.303h9.693v22.767H5.205   V57.303z M17.603,80.067V60.386h13.784v19.682H17.603z M68.581,80.067V60.386h13.815v19.682H68.581z M94.795,80.067h-9.693V57.3   h9.693V80.067z"></path><rect x="48.544" y="56.359" width="2.705" height="7.547"></rect><rect x="48.632" y="36.61" width="2.705" height="10.626"></rect><rect x="8.699" y="70.546" width="2.705" height="6.007"></rect><rect x="8.699" y="60.818" width="2.705" height="6.008"></rect><rect x="23.075" y="63.438" width="2.705" height="5.083"></rect><rect x="23.075" y="72.24" width="2.705" height="5.083"></rect><rect x="37.894" y="68.805" width="2.705" height="8.601"></rect><rect x="37.894" y="56.486" width="2.705" height="8.6"></rect><rect x="59.386" y="56.486" width="2.705" height="8.6"></rect><rect x="59.386" y="68.805" width="2.705" height="8.601"></rect><rect x="73.896" y="63.438" width="2.705" height="5.083"></rect><rect x="73.896" y="72.24" width="2.705" height="5.083"></rect><rect x="88.596" y="60.818" width="2.705" height="6.008"></rect><rect x="88.596" y="70.546" width="2.705" height="6.007"></rect></g></svg>