<svg height='100px' width='100px'  fill="#000000" xmlns="http://www.w3.org/2000/svg" xmlns:xlink="http://www.w3.org/1999/xlink" version="1.1" x="0px" y="0px" viewBox="0 0 100 100" enable-background="new 0 0 100 100" xml:space="preserve"><path d="M94.063,79.746h-1.863v-5.035c0-0.83-0.672-1.5-1.5-1.5h-1.652v-1.463c0-0.398-0.158-0.779-0.439-1.061l-2.432-2.434  c-0.281-0.281-0.664-0.439-1.061-0.439h-1.273V39.644h1.273c0.396,0,0.779-0.158,1.061-0.439l2.432-2.433  c0.281-0.281,0.439-0.663,0.439-1.061v-1.462h2.906c0.006,0,0.014,0,0.02,0c0.828,0,1.5-0.671,1.5-1.5  c0-0.65-0.414-1.205-0.994-1.412L50.66,10.87c-0.416-0.204-0.902-0.204-1.318,0L7.388,31.401c-0.627,0.307-0.96,1.005-0.802,1.686  c0.157,0.68,0.763,1.162,1.461,1.162h3.28v1.462c0,0.398,0.158,0.779,0.439,1.061l2.434,2.433c0.281,0.281,0.663,0.439,1.061,0.439  h1.271v28.171h-1.271c-0.397,0-0.779,0.158-1.061,0.439l-2.434,2.434c-0.281,0.281-0.439,0.662-0.439,1.061v1.463H9.3  c-0.828,0-1.5,0.67-1.5,1.5v5.035H5.937c-0.828,0-1.5,0.672-1.5,1.5v6.537c0,0.828,0.672,1.5,1.5,1.5h88.125  c0.828,0,1.5-0.672,1.5-1.5v-6.537C95.563,80.418,94.891,79.746,94.063,79.746z M86.047,72.369v0.842H71.328v-0.842l1.555-1.555  h11.611L86.047,72.369z M31.608,70.688l-2.434-2.434c-0.281-0.281-0.663-0.439-1.061-0.439h-1.271V39.644h1.271  c0.397,0,0.779-0.158,1.061-0.439l2.434-2.433c0.281-0.281,0.439-0.663,0.439-1.061v-1.462h7.78v1.462  c0,0.398,0.158,0.779,0.439,1.061l2.434,2.433c0.281,0.281,0.663,0.439,1.061,0.439h1.271v28.171h-1.271  c-0.397,0-0.779,0.158-1.061,0.439l-2.434,2.434c-0.281,0.281-0.439,0.662-0.439,1.061v1.463h-7.78v-1.463  C32.047,71.35,31.889,70.969,31.608,70.688z M48.033,67.814V39.644h4.309v28.171H48.033z M44.382,36.644l-1.555-1.555v-0.84h14.719  v0.841l-1.553,1.554H44.382z M42.828,72.369l1.555-1.555h11.612l1.553,1.555v0.842H42.828V72.369z M60.107,70.688l-2.432-2.434  c-0.281-0.281-0.664-0.439-1.061-0.439h-1.273V39.644h1.273c0.396,0,0.779-0.158,1.061-0.439l2.432-2.433  c0.281-0.281,0.439-0.663,0.439-1.061v-1.462h7.781v1.462c0,0.398,0.158,0.779,0.439,1.061l2.434,2.433  c0.281,0.281,0.662,0.439,1.061,0.439h1.271v28.171h-1.271c-0.398,0-0.779,0.158-1.061,0.439l-2.434,2.434  c-0.281,0.281-0.439,0.662-0.439,1.061v1.463h-7.781v-1.463C60.547,71.35,60.389,70.969,60.107,70.688z M80.842,67.814h-4.309  V39.644h4.309V67.814z M86.047,35.089l-1.553,1.554H72.883l-1.555-1.555v-0.84h14.719V35.089z M50,13.887l35.476,17.362H16.733h-0.2  h-2.009L50,13.887z M14.328,35.089v-0.84h14.72v0.84l-1.555,1.555h-11.61L14.328,35.089z M19.533,39.644h4.31v28.171h-4.31V39.644z   M14.328,72.369l1.555-1.555h11.61l1.555,1.555v0.842h-14.72V72.369z M10.8,76.211h78.399v3.535H10.8V76.211z M92.563,86.283H7.437  v-3.537H9.3h81.399h1.863V86.283z"></path></svg>